<?xml version="1.0" encoding="UTF-8"?>
<svg xmlns="http://www.w3.org/2000/svg" xmlns:xlink="http://www.w3.org/1999/xlink" version="1.1" id="Layer_1" x="0px" y="0px" viewBox="0 0 24 24" style="enable-background:new 0 0 24 24;" xml:space="preserve">
<g>
	<path style="fill:#303C42;" d="M23.5,11.5h-2.525c-0.116-2.104-0.955-4.014-2.277-5.491l1.788-1.788   c0.195-0.195,0.195-0.512,0-0.707s-0.512-0.195-0.707,0l-1.788,1.788c-1.476-1.322-3.386-2.161-5.491-2.277V0.5   C12.5,0.224,12.276,0,12,0s-0.5,0.224-0.5,0.5v2.525C9.396,3.142,7.486,3.981,6.009,5.302L4.222,3.515   c-0.195-0.195-0.512-0.195-0.707,0s-0.195,0.512,0,0.707l1.788,1.788C3.981,7.486,3.142,9.396,3.025,11.5H0.5   C0.224,11.5,0,11.724,0,12s0.224,0.5,0.5,0.5h2.525c0.116,2.104,0.955,4.014,2.277,5.491l-1.788,1.788   c-0.195,0.195-0.195,0.512,0,0.707c0.098,0.098,0.226,0.146,0.354,0.146s0.256-0.049,0.354-0.146l1.788-1.788   c1.476,1.322,3.386,2.161,5.491,2.277V23.5c0,0.276,0.224,0.5,0.5,0.5s0.5-0.224,0.5-0.5v-2.525   c2.104-0.116,4.014-0.955,5.491-2.277l1.788,1.788c0.098,0.098,0.226,0.146,0.354,0.146s0.256-0.049,0.354-0.146   c0.195-0.195,0.195-0.512,0-0.707l-1.788-1.788c1.322-1.476,2.161-3.386,2.277-5.491H23.5c0.276,0,0.5-0.224,0.5-0.5   S23.776,11.5,23.5,11.5z"/>
	<circle style="fill:#FFCA28;" cx="12" cy="12" r="8"/>
	<linearGradient id="SVGID_1_" gradientUnits="userSpaceOnUse" x1="4.8294" y1="8.4488" x2="14.854" y2="13.1234">
		<stop offset="0" style="stop-color:#FFFFFF;stop-opacity:0.2"/>
		<stop offset="1" style="stop-color:#FFFFFF;stop-opacity:0"/>
	</linearGradient>
	<path style="fill:url(#SVGID_1_);" d="M4.5,12.5c0-4.411,3.589-8,8-8c2.079,0,3.968,0.803,5.392,2.108C16.429,5.01,14.333,4,12,4   c-4.411,0-8,3.589-8,8c0,2.333,1.01,4.429,2.608,5.892C5.303,16.468,4.5,14.579,4.5,12.5z"/>
	<linearGradient id="SVGID_2_" gradientUnits="userSpaceOnUse" x1="1.7526" y1="7.2216" x2="22.2474" y2="16.7784">
		<stop offset="0" style="stop-color:#FFFFFF;stop-opacity:0.2"/>
		<stop offset="1" style="stop-color:#FFFFFF;stop-opacity:0"/>
	</linearGradient>
	<path style="fill:url(#SVGID_2_);" d="M23.5,11.5h-2.525c-0.116-2.104-0.955-4.014-2.277-5.491l1.788-1.788   c0.195-0.195,0.195-0.512,0-0.707s-0.512-0.195-0.707,0l-1.788,1.788c-1.476-1.322-3.386-2.161-5.491-2.277V0.5   C12.5,0.224,12.276,0,12,0s-0.5,0.224-0.5,0.5v2.525C9.396,3.142,7.486,3.981,6.009,5.302L4.222,3.515   c-0.195-0.195-0.512-0.195-0.707,0s-0.195,0.512,0,0.707l1.788,1.788C3.981,7.486,3.142,9.396,3.025,11.5H0.5   C0.224,11.5,0,11.724,0,12s0.224,0.5,0.5,0.5h2.525c0.116,2.104,0.955,4.014,2.277,5.491l-1.788,1.788   c-0.195,0.195-0.195,0.512,0,0.707c0.098,0.098,0.226,0.146,0.354,0.146s0.256-0.049,0.354-0.146l1.788-1.788   c1.476,1.322,3.386,2.161,5.491,2.277V23.5c0,0.276,0.224,0.5,0.5,0.5s0.5-0.224,0.5-0.5v-2.525   c2.104-0.116,4.014-0.955,5.491-2.277l1.788,1.788c0.098,0.098,0.226,0.146,0.354,0.146s0.256-0.049,0.354-0.146   c0.195-0.195,0.195-0.512,0-0.707l-1.788-1.788c1.322-1.476,2.161-3.386,2.277-5.491H23.5c0.276,0,0.5-0.224,0.5-0.5   S23.776,11.5,23.5,11.5z"/>
</g>
<g>
</g>
<g>
</g>
<g>
</g>
<g>
</g>
<g>
</g>
<g>
</g>
<g>
</g>
<g>
</g>
<g>
</g>
<g>
</g>
<g>
</g>
<g>
</g>
<g>
</g>
<g>
</g>
<g>
</g>

	<metadata>
		<rdf:RDF xmlns:rdf="http://www.w3.org/1999/02/22-rdf-syntax-ns#" xmlns:rdfs="http://www.w3.org/2000/01/rdf-schema#" xmlns:dc="http://purl.org/dc/elements/1.1/">
			<rdf:Description about="https://iconscout.com/legal#licenses" dc:title="weather; forcast; sun; sunny; day (2)" dc:description="weather; forcast; sun; sunny; day (2)" dc:publisher="Iconscout" dc:date="2017-03-22" dc:format="image/svg+xml" dc:language="en">
				<dc:creator>
					<rdf:Bag>
						<rdf:li>Alpár - Etele Méder</rdf:li>
					</rdf:Bag>
				</dc:creator>
			</rdf:Description>
		</rdf:RDF>
    </metadata></svg>
