<svg xmlns="http://www.w3.org/2000/svg" enable-background="new 0 0 98 98" viewBox="0 0 98 98"><path fill="#FFD75B" d="M76.8255,62.3098c-3.4097-4.4894-8.3435-7.7872-13.7852-9.2562c0.2014-1.1901,0.2756-2.434,0.1821-3.7383
		c-0.0024-0.0344-0.0063-0.0674-0.0088-0.1017l0.1453,0.7232c5.1167-2.1818,10.4065-4.9464,15.2187-7.7359
		c-5.2551-2.2072-11.2515-2.5863-16.7485-1.0801c-0.4458-1.5232-0.9963-2.9354-1.6489-4.2368l0.6426,0.73
		c3.3403-4.4478,6.5393-9.487,9.312-14.3089c-5.6191,0.7115-10.9673,3.355-14.9668,7.3651
		c-0.8491-0.6503-1.7712-1.2183-2.7654-1.7041c0.6453-5.4485,0.8926-11.3078,0.8831-16.7826
		c-4.6021,3.4954-7.9668,8.5876-9.3774,14.1919l2.4028,0.8104c-2.1245-0.2867-4.4661-0.3193-7.0396-0.076l1.6797-0.3375
		c-2.1816-5.1166-4.9463-10.4066-7.7358-15.2189c-2.2378,5.3278-2.6055,11.4199-1.0254,16.9783
		c-1.238,0.4277-2.3982,0.9366-3.4692,1.5295l0.9702-0.8541c-4.4478-3.3403-9.4871-6.5392-14.3091-9.3121
		c0.7158,5.6523,3.384,11.0326,7.4338,15.0393c-0.4761,0.5654-0.9255,1.147-1.3379,1.7487l0.0071-0.0148
		c-5.522-0.6689-12.6746-1.1575-18.2368-1.1479c3.4954,4.6021,8.5876,7.9669,14.1919,9.3775l0.999-2.0327
		c-0.675,2.0408-1.0869,4.1196-1.2573,6.1299l-0.0933-0.9266C11.972,50.25,5.8028,53.0147,0.9903,55.8042
		c5.2866,2.2204,11.3245,2.5945,16.8481,1.0565c0.522,1.8118,1.0951,2.7877,1.717,3.6662l-0.7634-0.8671
		c-3.3403,4.4478-6.5391,9.487-9.312,14.3089c5.7334-0.7261,11.1934-3.4537,15.217-7.6018l-1.6548-1.8795
		c1.6216,1.5376,3.6599,3.1288,6.0466,4.3964l-1.6167-0.5453c-0.6689,5.522-0.9197,11.4855-0.9102,17.0479
		c4.6021-3.4954,7.9668-8.5877,9.3774-14.192l-0.1064-0.0359c0.97,0.1455,1.9724,0.2174,3.0044,0.2054
		c2.1729,5.0757,4.9106,10.3154,7.6763,15.0865c2.2378-5.3282,2.6057-11.4206,1.0251-16.9793l-0.644,0.1294
		c1.0725-0.4256,2.186-0.9292,3.3071-1.511l-0.0134,0.0095c4.4478,3.3403,10.1226,7.2369,14.9446,10.0098
		c-0.7256-5.7296-3.4504-11.1861-7.5942-15.2091c1.0813-1.0523,2.0613-2.2047,2.897-3.4514l-0.6582,1.9517
		C65.2996,62.0687,71.2632,62.3194,76.8255,62.3098z"/><path fill="#3F4040" d="M22.2135,51.0318c-0.0313,0-0.0615-0.0029-0.0928-0.0088c-0.2715-0.0508-0.4502-0.3115-0.3994-0.583
		c1.5703-8.4141,7.8008-15.6885,15.873-18.5332c0.2607-0.0928,0.5459,0.0449,0.6377,0.3057
		c0.0918,0.2607-0.0449,0.5459-0.3057,0.6377c-7.7402,2.7285-13.7158,9.7051-15.2227,17.7734
		C22.6588,50.8638,22.4488,51.0318,22.2135,51.0318z"/><path fill="#D7E5E8" d="M93.0882,72.9598c-1.6107,0.8836-3.4326,1.3214-5.2388,1.7124
		c-6.5309,1.3908-13.5133,2.0291-18.4531-2.4552c-0.0078,0.0234-0.0234,0.0469-0.0313,0.0703
		c-6.6228,4.2145-14.7391,5.403-22.0343,3.2137c-2.3457-0.7037-4.7931-1.9314-5.966-4.2536
		c-2.525,2.524-9.1112,4.4123-14.872,2.7054c-2.6272-0.7819-5.9894-2.1893-5.9817-4.9339c0-2.7445,1.7828-5.3248,4.2067-6.6071
		c1.2198-0.6412,2.5725-0.9774,3.9487-1.0321c-0.0391-0.0157-0.0704-0.0313-0.1095-0.0469c0.602-3.8548,3.5499-7.2483,7.2874-8.3743
		c2.9713-0.8992,6.3178-0.3128,8.8903,1.4153c0.0156-0.0704,0.0313-0.1486,0.0547-0.2267c0-12.2748,17.7937-12.5322,21.354-6.396
		c8.4063-5.0056,19.6497-0.3351,20.8223,4.4021c0.3362,1.384-0.649,2.7837-1.4309,3.9565
		C98.7822,59.8344,99.4527,69.4861,93.0882,72.9598z"/><path fill="#3F4040" d="M31.2691,75.1402c-1.6543,0-3.3135-0.2334-4.917-0.71c-1.5713-0.4678-6.3516-1.8906-6.3438-5.4102
		c0.0068-2.8086,1.8057-5.6416,4.4766-7.0508c2.4375-1.2842,5.4961-1.4639,8.3896-0.4922c0.2617,0.0879,0.4023,0.3711,0.3145,0.6328
		c-0.0869,0.2617-0.3701,0.4072-0.6328,0.3145c-2.6387-0.8848-5.4092-0.7285-7.6045,0.4297
		c-2.3525,1.2412-3.9375,3.7197-3.9434,6.168c-0.0039,1.8652,1.8369,3.3213,5.6289,4.4492
		c4.6758,1.3926,10.0664,0.5195,14.0684-2.2725c0.2246-0.1563,0.5371-0.1035,0.6963,0.124c0.1582,0.2266,0.1025,0.5381-0.124,0.6963
		C38.3404,74.0689,34.8131,75.1402,31.2691,75.1402z"/><path fill="#3F4040" d="M28.5582,61.8296c-0.0254,0-0.0518-0.002-0.0781-0.0059c-0.2725-0.042-0.459-0.2979-0.417-0.5713
		c0.6309-4.0605,3.6992-7.585,7.6348-8.7705s8.4414,0.0605,11.208,3.0977c0.1865,0.2041,0.1719,0.5205-0.0322,0.7061
		c-0.2031,0.1885-0.5205,0.1729-0.7061-0.0322c-2.5156-2.7588-6.6055-3.8867-10.1807-2.8145
		c-3.5752,1.0771-6.3623,4.2783-6.9355,7.9678C29.0133,61.6529,28.8004,61.8296,28.5582,61.8296z"/><path fill="#3F4040" d="M44.7867,54.6451L44.7867,54.6451c-0.2764,0-0.5-0.2246-0.5-0.5
		c0.0049-5.1826,3.0703-8.9326,8.4102-10.2881c5.6699-1.4395,12.0664,0.291,13.9648,3.7793
		c0.1318,0.2432,0.042,0.5469-0.2002,0.6787c-0.2422,0.1299-0.5459,0.042-0.6787-0.2002c-1.667-3.0654-7.667-4.6006-12.8398-3.2891
		c-4.8613,1.2344-7.6523,4.6318-7.6563,9.3193C45.2867,54.4214,45.0631,54.6451,44.7867,54.6451z"/><path fill="#3F4040" d="M85.3121,56.9517c-0.0928,0-0.1865-0.0254-0.2705-0.0801c-0.2324-0.1494-0.2998-0.458-0.1494-0.6904
		l0.3193-0.4854c0.7217-1.082,1.5391-2.3076,1.2666-3.4268c-0.4502-1.8389-2.623-3.7285-5.6719-4.9307
		c-3.9668-1.5645-9.9668-2.0801-14.9131,1.1592c-0.2305,0.1504-0.541,0.0879-0.6924-0.1436s-0.0869-0.541,0.1436-0.6924
		c5.2676-3.4492,11.6299-2.9082,15.8291-1.2539c3.3965,1.3398,5.7422,3.4424,6.2754,5.624
		c0.3779,1.5459-0.6104,3.0283-1.4053,4.2188l-0.3115,0.4717C85.6373,56.8706,85.4762,56.9517,85.3121,56.9517z"/><path fill="#3F4040" d="M79.5807,76.2007c-4.3027,0-8.4912-1.0938-11.5078-4.6348c-0.1787-0.21-0.1533-0.5254,0.0566-0.7051
		c0.209-0.1787,0.5264-0.1543,0.7051,0.0566c4.667,5.4805,12.5586,4.6221,18.9141,3.2627c1.7207-0.3682,3.5322-0.7988,5.1025-1.6572
		c2.5703-1.4033,3.9219-3.832,3.6172-6.4971c-0.4707-4.1074-4.6436-7.6445-11.1631-9.4609
		c-0.2666-0.0742-0.4219-0.3496-0.3477-0.6152s0.3486-0.4229,0.6152-0.3477c6.9258,1.9297,11.3701,5.7842,11.8887,10.3105
		c0.3477,3.0381-1.2354,5.9072-4.1309,7.4873c-1.6875,0.9229-3.5801,1.375-5.373,1.7588
		C85.3209,75.7222,82.4264,76.2007,79.5807,76.2007z"/><path fill="#3F4040" d="M54.7789,77.0884c-2.5566,0-5.1113-0.3662-7.5889-1.1104c-3.3623-1.0068-5.5459-2.6816-6.4893-4.9756
		c-0.1055-0.2559,0.0166-0.5479,0.2715-0.6523c0.2568-0.1064,0.5479,0.0166,0.6523,0.2715c0.8242,2.002,2.793,3.4824,5.8525,4.3994
		c7.1943,2.1572,15.0752,1.0088,21.623-3.1533c0.2314-0.1484,0.541-0.0791,0.6904,0.1533c0.1484,0.2334,0.0791,0.542-0.1533,0.6904
		C65.0963,75.5992,59.9342,77.0884,54.7789,77.0884z"/><path fill="#3F4040" d="M86.3204,55.8284c0.7296-1.1096,1.4685-2.4287,1.1287-3.7981c-1.0565-4.3459-7.9896-6.8794-13.05-6.9199
		c1.46-0.79,2.94-1.6201,4.43-2.48c0.16-0.0901,0.26-0.27,0.25-0.4601c-0.0099-0.1899-0.13-0.36-0.31-0.4301
		c-5.24-2.21-11.11-2.6399-16.61-1.23c-0.28-0.9099-0.59-1.7799-0.94-2.5999c3.04-4.04,6.27-9,9.35-14.3601
		c0.09-0.1599,0.09-0.36-0.02-0.52c-0.1-0.1599-0.29-0.25-0.48-0.22c-5.61,0.71-10.88,3.25-14.94,7.1899
		c-0.69-0.5-1.42-0.95-2.19-1.3398c0.57-4.8801,0.86-10.5601,0.85-16.4801c0-0.1901-0.11-0.36-0.28-0.45
		c-0.17-0.08-0.3701-0.0601-0.53,0.0499c-7.1955,5.4846-9.8146,14.142-9.55,14.67c-0.68-0.02-1.36-0.02-2.07,0.02
		c-1.97-4.63-4.64-9.87-7.71-15.17c-0.1-0.1599-0.28-0.26-0.47-0.25c-0.19,0.02-0.35,0.13-0.42,0.3101
		c-2.2401,5.3099-2.65,11.27-1.17,16.84c-0.55,0.1901-1.07,0.41-1.57,0.64c-1.5971-1.6069-11.0218-7.4409-14.39-9.38
		c-0.16-0.09-0.36-0.09-0.52,0.02c-0.16,0.1-0.25,0.2899-0.22,0.48c0.71,5.64,3.27,10.9401,7.2401,15
		c-0.6262,0.7878-0.8119,1.0777-0.8853,1.1781c-5.7393-0.6819-12.6788-1.1184-17.838-1.1184c-0.2441,0-0.499,0.0605-0.6064,0.2783
		c-0.084,0.1699-0.0645,0.373,0.0498,0.5244c3.5654,4.6934,8.6707,8.0745,14.3807,9.5343
		c-0.0856,0.4334-0.2338,1.0144-0.4008,2.2833c-4.48,1.9099-10.99,4.77-16.09,7.73c-0.16,0.1-0.26,0.28-0.25,0.47
		s0.13,0.35,0.31,0.4199c3.22,1.3601,6.69,2.04,10.16,2.04c2.2,0,4.4-0.28,6.55-0.83c0.23,0.72,0.5,1.39,0.8,1.99
		c-3.01,4.0299-6.21,8.9501-9.26,14.26c-0.1,0.16-0.09,0.37,0.01,0.5299c0.1,0.1301,0.25,0.2201,0.42,0.2201
		c0.02,0,0.04,0,0.06-0.01c3.85-0.48,7.55-1.83,10.8-3.91c1.2582,2.7679,5.8136,3.7718,6.07,3.9
		c-0.24,3.4501-0.36,7.15-0.35,10.9401c0,0.1899,0.11,0.3599,0.28,0.4399c0.07,0.04,0.15,0.0601,0.22,0.0601
		c0.11,0,0.22-0.04,0.31-0.1101c3.77-2.8699,6.71-6.74,8.46-11.1199c1.32-0.3,2.6-0.76,3.81-1.3701
		c1.8701,4.1801,4.26,8.77,6.94,13.41c0.09,0.16,0.26,0.25,0.4301,0.25h0.04c0.19-0.01,0.35-0.13,0.43-0.3099
		c1.36-3.23,2.04-6.7001,2.03-10.1801c4.0111,0.8868,8.1796,0.8384,12.1899-0.15c0.2325,0.1466,3.6536,2.3,3.9301,2.3
		c0.28,0,0.5347-0.247,0.5-0.5601c-0.13-1.01-0.31-2.01-0.56-2.99c2.2899-0.919,3.6545-1.8219,4.2991-2.1854
		c2.8648,2.5056,6.4951,3.3258,10.2125,3.3258c3.8357,0,10.7508-1.1606,13.75-2.8008
		C99.9641,69.7801,99.4549,59.8608,86.3204,55.8284z M77.4291,42.2803c-1.82,1.05-3.64,2.04-5.42,2.97
		c-0.727,0.1522-2.9849,0.3145-5.71,1.8401c-0.7-1-1.8-1.8301-3.15-2.45c-0.2-1.1101-0.43-2.17-0.71-3.17
		C67.3891,40.2104,72.6491,40.5003,77.4291,42.2803z M69.1791,23.9504c-2.79,4.7899-5.68,9.23-8.44,12.9301
		c-1.24-2.5601-2.84-4.6401-4.81-6.27C59.5691,27.1204,64.2091,24.7903,69.1791,23.9504z M52.7891,13.2204
		c-0.03,5.36-0.3,10.5-0.8,14.98c-2.22-0.97-4.76-1.5499-7.6-1.7101C45.6991,21.2903,48.6691,16.6204,52.7891,13.2204z
		 M33.2991,12.7004c2.77,4.83,5.17,9.58,7,13.83c-2.5077,0.1487-5.3755,0.578-7.77,1.3401
		C31.2291,22.8604,31.4891,17.5403,33.2991,12.7004z M16.0291,20.8504c4.8,2.79,9.26,5.7,12.97,8.47
		c-2.59,1.3401-4.63,3.0601-6.23,4.87C19.2391,30.5403,16.8791,25.8604,16.0291,20.8504z M32.1891,29.0303h0.03
		c0.04,0,0.07,0,0.11-0.02c0.1003-0.0201,0.0398-0.0032,0.14-0.0699c6.9602-2.3401,17.3241-2.2652,22.69,2.4
		c3.8928,3.1425,5.9247,7.9145,6.88,12.86c-6.7823-2.394-17.3004,0.051-17.72,9.3199c-6.7874-3.8671-14.8609,0.2525-16.19,7.3901
		c-2.0946,0.1931-4.0167,0.987-5.52,2.4099c-1.81-1.8301-2.94-3.4399-3.3-4.11C15.0226,51.1421,18.2894,33.964,32.1891,29.0303z
		 M4.2848,36.024c4.8627,0.0437,11.0629,0.4434,16.342,1.0503c-1.8577,2.8795-2.523,5.2556-3.1681,7.3079
		C12.3063,43.0613,7.6681,40.1154,4.2848,36.024z M2.1491,55.7204c4.7-2.64,10.4-5.16,14.56-6.9401c-0.26,2.8301-0.04,5.5,0.52,7.73
		C12.2591,57.7903,6.9591,57.5203,2.1491,55.7204z M10.4291,73.3204c2.79-4.78,5.69-9.22,8.44-12.9199
		c0.6,0.9099,1.63,2.25,3.03,3.6799c-1.5919,1.9156-2.0667,4.2438-1.85,5.47C17.1491,71.4504,13.8591,72.7403,10.4291,73.3204z
		 M27.0591,84.3504c0.02-3.3401,0.13-6.5901,0.33-9.65c2.2406,0.525,4.5877,0.5657,6.76,0.2001
		C32.5791,78.5503,30.1391,81.8103,27.0591,84.3504z M46.4291,85.3003c-2.48-4.33-4.66-8.59-6.4-12.48c0.42-0.24,0.82-0.5,1.22-0.78
		c1.4491,2.2901,4.1282,3.4883,6.76,4.17C48.0491,79.3003,47.5191,82.3904,46.4291,85.3003z M64.4891,77.1504
		c-0.64-0.3701-1.29-0.77-1.97-1.2001c0.54-0.15,1.08-0.33,1.61-0.53C64.2691,75.9903,64.3891,76.5704,64.4891,77.1504z
		 M92.8512,72.523c-2.6291,1.4372-17.5685,5.9666-24.0166-1.6055c-0.1787-0.2109-0.4961-0.2354-0.7051-0.0566
		c-0.4673,0.4,0.059,0.8596,0.4888,1.3037c-0.0032,0.002-0.006,0.0039-0.0092,0.0057c-10.5691,6.4446-24.6442,4.1476-26.98-1.5499
		c-0.2824-0.6416-1.3049-0.2079-0.85,0.5499c-0.1052,0-6.1828,4.6563-14.14,2.3c-1.899-0.6337-4.6985-1.5456-5.45-3.4801v-0.0099
		c-0.6331-1.6358,0.414-5.3629,3.7599-7.13c2.2-1.15,4.97-1.3101,7.61-0.4301c0.6078,0.2337,0.952-0.7456,0.32-0.9399
		c-1.23-0.41-2.5-0.62-3.72-0.62c1.7237-7.952,11.6674-10.4615,17.01-4.6101c0.18,0.2101,0.5,0.2201,0.7,0.04
		c0.21-0.1899,0.22-0.51,0.04-0.71c-0.49-0.54-1.03-1.02-1.62-1.4399c0-11.3146,16.2251-11.865,20.16-6.54
		c-0.03,0.02-0.0699,0.04-0.1,0.0601c-0.24,0.1499-0.3,0.46-0.15,0.6899c0.04,0.0699,0.1,0.12,0.16,0.1499
		c0.16,0.1101,0.37,0.1101,0.53,0c0.08-0.0499,0.15-0.0999,0.23-0.1399c0.11,0.02,0.23,0.01,0.34-0.05
		c0.12-0.0601,0.2-0.1699,0.23-0.29c8.0965-4.5628,18.7256-0.1019,19.79,4.25c0.2045,0.8575-0.14,1.701-1.2244,3.3572
		c-0.1787,0.0726-0.3094,0.2205-0.3072,0.4604l-0.0084,0.0125l-0.05,0.08c-0.2115,0.3245,0.0225,0.77,0.42,0.77
		c0.17,0,0.33-0.08,0.42-0.23l0.0153-0.0228C98.2249,60.3861,98.7939,69.2784,92.8512,72.523z"/><path fill="#3F4040" d="M23.2818 69.4663c-.0264 0-.0527-.0039-.0791-.0127-.1309-.0439-.2021-.1855-.1582-.3164 1.0605-3.1904 3.6172-5.5234 6.3613-5.8057.1504-.0156.2598.0869.2744.2236.0137.1367-.0859.2598-.2236.2744-2.5518.2617-4.9375 2.458-5.9375 5.4658C23.484 69.3999 23.3863 69.4663 23.2818 69.4663zM31.859 59.9419c-.0498 0-.1006-.0146-.1445-.0459-.1123-.0801-.1396-.2363-.0596-.3486 2.0342-2.8652 5.3672-4.5518 8.6982-4.4043.1387.0068.2451.123.2393.2607-.0059.1387-.1465.252-.2607.2393-3.1953-.1563-6.333 1.4639-8.2686 4.1934C32.0143 59.9048 31.9371 59.9419 31.859 59.9419zM47.1705 52.3843c-.04 0-.0811-.0098-.1182-.0303-.1221-.0654-.167-.2168-.1016-.3379 1.0107-1.877 2.6074-3.4551 4.4941-4.4443 1.8857-.9883 4.0889-1.4063 6.21-1.1699.1377.0146.2363.1387.2207.2754-.0146.1367-.1436.2432-.2754.2207-2.0215-.2246-4.124.1719-5.9229 1.1172-1.7998.9434-3.3223 2.4482-4.2871 4.2373C47.3453 52.3365 47.2594 52.3843 47.1705 52.3843z"/></svg>