<?xml version="1.0" encoding="UTF-8"?><svg xmlns="http://www.w3.org/2000/svg" xmlns:xlink="http://www.w3.org/1999/xlink" version="1.1" id="Layer_1" x="0px" y="0px" viewBox="0 0 24 24" xml:space="preserve"><path fill="#303C42" d="M3.722 20.052a.495.495 0 0 0-.526.051l-1.555 1.189c-.408.29-.641.73-.641 1.208 0 .827.673 1.5 1.5 1.5S4 23.327 4 22.5v-2a.5.5 0 0 0-.278-.448z"/><path fill="#BBDEFB" d="M3 22.5a.5.5 0 0 1-1 0c0-.207.14-.337.225-.396l.016-.012.759-.58v.988z"/><path fill="#303C42" d="M11.722 20.052a.495.495 0 0 0-.526.051l-1.555 1.189c-.408.29-.641.73-.641 1.208 0 .827.673 1.5 1.5 1.5s1.5-.673 1.5-1.5v-2a.5.5 0 0 0-.278-.448z"/><path fill="#BBDEFB" d="M11 22.5a.5.5 0 0 1-1 0c0-.207.14-.337.225-.396l.016-.012.759-.58v.988z"/><path fill="#303C42" d="M19.722 20.052a.495.495 0 0 0-.526.051l-1.554 1.19c-.409.289-.642.728-.642 1.207 0 .827.673 1.5 1.5 1.5s1.5-.673 1.5-1.5v-2a.5.5 0 0 0-.278-.448z"/><path fill="#BBDEFB" d="M19 22.5a.5.5 0 0 1-1 0c0-.207.14-.336.225-.395l.016-.013.759-.58v.988z"/><path fill="#303C42" d="M19 4c-.388 0-.767.057-1.139.144C16.741 1.654 14.25 0 11.5 0 7.88 0 4.888 2.737 4.549 6.282A3.998 3.998 0 0 0 2 10c0 .23.034.469.084.716A4.491 4.491 0 0 0 0 14.5C0 16.981 2.019 19 4.5 19h1.523l-.382.292c-.408.29-.641.73-.641 1.208 0 .827.673 1.5 1.5 1.5S8 21.327 8 20.5V19h6.023l-.382.292c-.408.29-.641.73-.641 1.208 0 .827.673 1.5 1.5 1.5s1.5-.673 1.5-1.5v-1.55c1.692-.246 3-1.692 3-3.45a3.46 3.46 0 0 0-.351-1.5H19c2.757 0 5-2.243 5-5s-2.243-5-5-5z"/><path fill="#BBDEFB" d="M7 20.5a.5.5 0 0 1-1 0c0-.207.14-.337.225-.396l.016-.012.759-.58v.988z"/><path fill="#BBDEFB" d="M15 20.5a.5.5 0 0 1-1 0c0-.207.14-.337.225-.396l.016-.012.759-.58v.988z"/><path fill="#64B5F6" d="M3 10c0-1.654 1.346-3 3-3a.5.5 0 1 0 0-1c-.145 0-.281.028-.422.043C6.018 3.17 8.512 1 11.5 1c2.323 0 4.429 1.378 5.41 3.461a4.971 4.971 0 0 0-.7.39.5.5 0 1 0 .559.828A3.978 3.978 0 0 1 19 5c2.206 0 4 1.794 4 4s-1.794 4-4 4h-1.058a3.51 3.51 0 0 0-.994-.677C16.608 9.313 14.06 7 11 7a5.992 5.992 0 0 0-5.278 3.185A4.482 4.482 0 0 0 4.5 10c-.52 0-1.012.106-1.478.27C3.012 10.178 3 10.086 3 10z"/><path fill="#64B5F6" d="M15.5 18h-11C2.57 18 1 16.43 1 14.5S2.57 11 4.5 11c.804 0 1.56.265 2.187.767a.5.5 0 1 0 .625-.78 4.453 4.453 0 0 0-.656-.434A4.994 4.994 0 0 1 11 8c2.412 0 4.428 1.73 4.88 4.038-.126-.013-.25-.038-.38-.038a.5.5 0 1 0 0 1c1.378 0 2.5 1.122 2.5 2.5S16.878 18 15.5 18z"/><path opacity="0.1" d="M20.288 5.232c.447.645.712 1.425.712 2.268 0 2.206-1.794 4-4 4h-.223c.07.27.139.54.17.823.37.169.707.396.995.677H19c2.206 0 4-1.794 4-4 0-1.752-1.14-3.229-2.712-3.768z"/><path opacity="0.1" d="M16.938 13.462c.039.174.062.353.062.538 0 1.378-1.122 2.5-2.5 2.5h-11a3.47 3.47 0 0 1-2.3-.883C1.668 16.997 2.962 18 4.5 18h11c1.378 0 2.5-1.122 2.5-2.5 0-.842-.422-1.585-1.062-2.038z"/><linearGradient id="SVGID_1_" gradientUnits="userSpaceOnUse" x1="1.895522" y1="9.3424854" x2="21.9333611" y2="18.6862831"><stop offset="0" stop-color="#FFF" stop-opacity="0.2"/><stop offset="1" stop-color="#FFF" stop-opacity="0"/></linearGradient><path fill="url(#SVGID_1_)" d="M3.722 20.052a.495.495 0 0 0-.526.051l-1.555 1.189c-.408.29-.641.73-.641 1.208 0 .827.673 1.5 1.5 1.5S4 23.327 4 22.5v-2a.5.5 0 0 0-.278-.448zm8 0a.495.495 0 0 0-.526.051l-1.555 1.189c-.408.29-.641.73-.641 1.208 0 .827.673 1.5 1.5 1.5s1.5-.673 1.5-1.5v-2a.5.5 0 0 0-.278-.448zm8 0a.495.495 0 0 0-.526.051l-1.554 1.19c-.409.289-.642.728-.642 1.207 0 .827.673 1.5 1.5 1.5s1.5-.673 1.5-1.5v-2a.5.5 0 0 0-.278-.448zM19 4c-.388 0-.767.057-1.139.144C16.741 1.654 14.25 0 11.5 0 7.88 0 4.888 2.737 4.549 6.282A3.998 3.998 0 0 0 2 10c0 .23.034.469.084.716A4.491 4.491 0 0 0 0 14.5C0 16.981 2.019 19 4.5 19h1.523l-.382.292c-.408.29-.641.73-.641 1.208 0 .827.673 1.5 1.5 1.5S8 21.327 8 20.5V19h6.023l-.382.292c-.408.29-.641.73-.641 1.208 0 .827.673 1.5 1.5 1.5s1.5-.673 1.5-1.5v-1.55c1.692-.246 3-1.692 3-3.45a3.46 3.46 0 0 0-.351-1.5H19c2.757 0 5-2.243 5-5s-2.243-5-5-5z"/><metadata><rdf:RDF xmlns:rdf="http://www.w3.org/1999/02/22-rdf-syntax-ns#" xmlns:rdfs="http://www.w3.org/2000/01/rdf-schema#" xmlns:dc="http://purl.org/dc/elements/1.1/"><rdf:Description about="https://iconscout.com/legal#licenses" dc:title="weather,forcast,hard,rain,storm" dc:description="weather,forcast,hard,rain,storm" dc:publisher="Iconscout" dc:date="2017-11-27" dc:format="image/svg+xml" dc:language="en"><dc:creator><rdf:Bag><rdf:li>Those Icons</rdf:li></rdf:Bag></dc:creator></rdf:Description></rdf:RDF></metadata></svg>