<?xml version="1.0" encoding="UTF-8"?><svg xmlns="http://www.w3.org/2000/svg" xmlns:xlink="http://www.w3.org/1999/xlink" version="1.1" id="Layer_1" x="0px" y="0px" viewBox="0 0 24 24" xml:space="preserve"><path fill="#FED600" d="M22 9l2-2-2-2V2h-3l-2-2-2 2h-3v3l-2 2 2 2v3h3l2 2 2-2h3z"/><path opacity="0.1" fill="#010101" d="M17 13.75l-2-2h-3V12h3l2 2 2-2h3v-.25h-3z"/><path opacity="0.1" fill="#010101" d="M12 8.75L10 7l2 2z"/><path opacity="0.1" fill="#010101" d="M22 8.75V9l2-2z"/><path opacity="0.2" fill="#FFF" d="M22 5v.25L24 7z"/><path opacity="0.2" fill="#FFF" d="M12 5.25V5l-2 2z"/><path opacity="0.2" fill="#FFF" d="M17 .25l2 2h3V2h-3l-2-2-2 2h-3v.25h3z"/><circle fill="#FEE536" cx="17" cy="6.999999" r="4.5"/><linearGradient id="SVGID_1_" gradientUnits="userSpaceOnUse" x1="13.1989365" y1="1.6989353" x2="19.9281483" y2="8.4281473"><stop offset="0" stop-color="#010101" stop-opacity="0"/><stop offset="1" stop-color="#010101" stop-opacity="0.1"/></linearGradient><path fill="url(#SVGID_1_)" d="M22 2h-3l-2-2-2 2h-3v3l-2 2h14l-2-2z"/><path fill="#F3F3F3" d="M17 9c-.386 0-.758.054-1.12.137C14.785 6.702 12.34 5 9.5 5c-3.618 0-6.605 2.76-6.964 6.286A4 4 0 0 0 0 15c0 2.206 1.794 4 4 4h13c2.757 0 5-2.243 5-5s-2.243-5-5-5z"/><path opacity="0.1" fill="#010101" d="M17.068 18.75H3.92A4.05 4.05 0 0 1 .29 16.488 4.007 4.007 0 0 0 4 19h13a5.012 5.012 0 0 0 4.636-3.127 5.066 5.066 0 0 1-4.568 2.877z"/><path opacity="0.2" fill="#FFF" d="M17 9c-.386 0-.758.054-1.12.137C14.785 6.702 12.34 5 9.5 5c-3.618 0-6.605 2.76-6.964 6.286.012-.004-.012.004 0 0C1.047 11.886 0 13.3 0 15c.068-2.147 1.837-3.75 4-3.75S7.932 12.853 8 15c0-2.206-1.794-4-4-4-.502 0-.978.103-1.42.273C3.056 7.875 5.972 5.25 9.5 5.25c2.753 0 5.131 1.603 6.272 3.92.017-.004-.017.006 0 0A4.937 4.937 0 0 0 12 14c.068-2.698 2.286-4.75 5-4.75s4.932 2.052 5 4.75c0-2.757-2.243-5-5-5z"/><path fill="#2D98D4" d="M4.266 23.13c.483-.836.075-3.63.075-3.63s-2.623 1.044-3.106 1.88a1.75 1.75 0 0 0 .64 2.391c.277.16.578.23.876.229.604 0 1.191-.309 1.515-.87z"/><path fill="#2D98D4" d="M9.266 21.13c.483-.836.075-3.63.075-3.63s-2.623 1.044-3.106 1.88a1.75 1.75 0 1 0 3.03 1.75z"/><path fill="#2D98D4" d="M18.264 21.13c.483-.836.075-3.63.075-3.63s-2.623 1.044-3.106 1.88a1.75 1.75 0 1 0 3.03 1.75z"/><path fill="#2D98D4" d="M13.264 23.13c.483-.836.075-3.63.075-3.63s-2.623 1.044-3.106 1.88a1.75 1.75 0 0 0 .64 2.391c.276.16.578.23.876.229.604 0 1.191-.309 1.515-.87z"/><linearGradient id="SVGID_2_" gradientUnits="userSpaceOnUse" x1="2.6027949" y1="8.5362129" x2="21.0482502" y2="17.1374702"><stop offset="0" stop-color="#FFF" stop-opacity="0.2"/><stop offset="1" stop-color="#FFF" stop-opacity="0"/></linearGradient><path fill="url(#SVGID_2_)" d="M22 5V2h-3l-2-2-2 2h-3v3l-.347.347A6.94 6.94 0 0 0 9.5 5c-3.618 0-6.605 2.76-6.964 6.286A4 4 0 0 0 0 15c0 2.206 1.794 4 4 4h2.578a1.6 1.6 0 0 0-.343.38 1.75 1.75 0 0 0 3.03 1.75c.243-.418.261-1.327.22-2.13h6.09a1.6 1.6 0 0 0-.342.38 1.75 1.75 0 1 0 3.03 1.75c.268-.462.262-1.52.205-2.375C20.506 18.123 22 16.243 22 14a4.96 4.96 0 0 0-.424-2H22V9l2-2-2-2zM1.235 21.38a1.75 1.75 0 0 0 .64 2.391c.277.16.578.23.876.229.604 0 1.191-.309 1.515-.87.483-.836.075-3.63.075-3.63s-2.623 1.044-3.106 1.88z"/><linearGradient id="SVGID_3_" gradientUnits="userSpaceOnUse" x1="10.4621611" y1="20.8725014" x2="13.6312895" y2="22.3502884"><stop offset="0" stop-color="#FFF" stop-opacity="0.2"/><stop offset="1" stop-color="#FFF" stop-opacity="0"/></linearGradient><path fill="url(#SVGID_3_)" d="M10.233 21.38a1.75 1.75 0 0 0 .64 2.391c.276.16.578.23.876.229.604 0 1.191-.309 1.515-.87.483-.836.075-3.63.075-3.63s-2.623 1.044-3.106 1.88z"/><metadata><rdf:RDF xmlns:rdf="http://www.w3.org/1999/02/22-rdf-syntax-ns#" xmlns:rdfs="http://www.w3.org/2000/01/rdf-schema#" xmlns:dc="http://purl.org/dc/elements/1.1/"><rdf:Description about="https://iconscout.com/legal#licenses" dc:title="weather,forcast,hard,rain,storm,day" dc:description="weather,forcast,hard,rain,storm,day" dc:publisher="Iconscout" dc:date="2017-11-13" dc:format="image/svg+xml" dc:language="en"><dc:creator><rdf:Bag><rdf:li>Those Icons</rdf:li></rdf:Bag></dc:creator></rdf:Description></rdf:RDF></metadata></svg>