<svg xmlns="http://www.w3.org/2000/svg" viewBox="0 0 64 64"><g data-name="Layer 7"><path fill="#63a7c9" d="M59.56,27.2A12.39,12.39,0,0,1,47.17,39.59H12.55a8.1,8.1,0,0,1-1-16.14A5.46,5.46,0,0,1,17,18.3a5.28,5.28,0,0,1,1.55.23,13.14,13.14,0,0,1,23.73-2.69A12.4,12.4,0,0,1,59.56,27.2Z"/><path fill="#89cbe5" d="M59.56,27.2c0,.29,0,.57,0,.85l-.6-1c-9.46-13.84-23.54-2.49-23.54-2.49a13.58,13.58,0,0,1,3.16-7c-7.93-8.9-18.79-1.68-18.79-1.68a13.14,13.14,0,0,1,22.48,0A12.4,12.4,0,0,1,59.56,27.2Z"/><path fill="#008bc1" d="M22,39.59H12.55A8.1,8.1,0,0,1,9.55,24C9.77,28.82,12,35.88,22,39.59Z"/><path fill="#003166" d="M47.17,14.18A12.94,12.94,0,0,0,42.5,15a13.79,13.79,0,0,0-24.41,2.73,6.07,6.07,0,0,0-7.16,5.12,8.75,8.75,0,0,0,1.62,17.34H47.17a13,13,0,1,0,0-26Zm0,24.77H12.55a7.47,7.47,0,0,1-1-14.87,7.63,7.63,0,0,1,5.56,1.63,7.33,7.33,0,0,1,2.8,5,.65.65,0,0,0,.64.57h.07a.64.64,0,0,0,.57-.71,8.66,8.66,0,0,0-3.29-5.88,8.91,8.91,0,0,0-5.68-1.94A4.8,4.8,0,0,1,17,19a4.71,4.71,0,0,1,1.36.19.64.64,0,0,0,.8-.41,12.5,12.5,0,0,1,22.19-3.16A13,13,0,0,0,34.14,27.2a.65.65,0,0,0,1.29,0A11.76,11.76,0,0,1,42.5,16.43l.08,0a11.62,11.62,0,0,1,4.59-.93,11.75,11.75,0,1,1,0,23.49Z"/><polygon fill="#ffda00" points="29.28 36.96 36.32 36.96 33.74 42.76 37.03 42.76 26.97 54.51 30.46 42.76 28.2 42.76 29.28 36.96"/><path fill="#003166" d="M27,55.15a.68.68,0,0,1-.31-.08.62.62,0,0,1-.31-.74L29.6,43.4H28.2a.62.62,0,0,1-.49-.23.67.67,0,0,1-.14-.53l1.08-5.8a.64.64,0,0,1,.63-.53h7a.65.65,0,0,1,.59.91l-2.18,4.9H37a.65.65,0,0,1,.59.37.67.67,0,0,1-.1.69L27.45,54.93A.64.64,0,0,1,27,55.15Zm2-13h1.49a.64.64,0,0,1,.62.82L28.44,51.8l7.2-8.4h-1.9a.65.65,0,0,1-.54-.29.63.63,0,0,1-.05-.61l2.18-4.9H29.82Z"/><polygon fill="#ffda00" points="17.52 36.96 23.49 36.96 21.3 41.88 24.1 41.88 15.56 51.85 18.52 41.88 16.61 41.88 17.52 36.96"/><path fill="#003166" d="M15.56,52.49a.68.68,0,0,1-.31-.08.63.63,0,0,1-.31-.74l2.72-9.15H16.61a.63.63,0,0,1-.5-.23.67.67,0,0,1-.14-.53l.92-4.92a.64.64,0,0,1,.63-.53h6a.65.65,0,0,1,.59.91l-1.79,4H24.1a.63.63,0,0,1,.58.37.64.64,0,0,1-.09.69L16,52.27A.64.64,0,0,1,15.56,52.49Zm1.82-11.25h1.15a.62.62,0,0,1,.51.26.63.63,0,0,1,.1.56L17,49.14l5.67-6.62H21.3a.65.65,0,0,1-.54-.29.66.66,0,0,1,0-.61l1.79-4H18.06Z"/><polygon fill="#ffda00" points="42.34 36.96 48.32 36.96 46.12 41.88 48.92 41.88 40.38 51.85 43.35 41.88 41.43 41.88 42.34 36.96"/><path fill="#003166" d="M40.38,52.49a.68.68,0,0,1-.31-.08.65.65,0,0,1-.31-.74l2.73-9.15H41.43a.66.66,0,0,1-.5-.23.63.63,0,0,1-.13-.53l.91-4.92a.65.65,0,0,1,.63-.53h6a.62.62,0,0,1,.53.3.63.63,0,0,1,0,.61l-1.79,4h1.81a.63.63,0,0,1,.58.37.64.64,0,0,1-.09.69l-8.54,10A.68.68,0,0,1,40.38,52.49ZM42.2,41.24h1.15a.62.62,0,0,1,.51.26.63.63,0,0,1,.1.56l-2.11,7.08,5.68-6.62H46.12a.64.64,0,0,1-.58-.9l1.79-4H42.88Z"/></g></svg>