<?xml version="1.0" encoding="UTF-8" standalone="no"?>
<svg xmlns:dc="http://purl.org/dc/elements/1.1/" xmlns:cc="http://creativecommons.org/ns#" xmlns:rdf="http://www.w3.org/1999/02/22-rdf-syntax-ns#" xmlns:svg="http://www.w3.org/2000/svg" xmlns="http://www.w3.org/2000/svg" xmlns:sodipodi="http://sodipodi.sourceforge.net/DTD/sodipodi-0.dtd" xmlns:inkscape="http://www.inkscape.org/namespaces/inkscape" width="32" height="32" viewBox="0 0 8.4666665 8.4666669" version="1.1" id="svg16050" inkscape:version="0.91 r13725" sodipodi:docname="snow-snowflake-cold-winter.svg">
  <defs id="defs16044"/>
  <sodipodi:namedview id="base" pagecolor="#ffffff" bordercolor="#666666" borderopacity="1.0" inkscape:pageopacity="0.0" inkscape:pageshadow="2" inkscape:zoom="11.2" inkscape:cx="8.1541941" inkscape:cy="9.7124105" inkscape:document-units="mm" inkscape:current-layer="layer1" showgrid="false" inkscape:window-width="1366" inkscape:window-height="716" inkscape:window-x="-8" inkscape:window-y="-8" inkscape:window-maximized="1" units="px"/>
  
  <g inkscape:label="Layer 1" inkscape:groupmode="layer" id="layer1" transform="translate(0,-288.53332)">
    <g transform="matrix(0.26458334,0,0,0.26458336,638.39981,-117.80917)" style="display: inline;" id="g29668">
      <path inkscape:connector-curvature="0" id="path28891" d="m -2384.2845,1552.1889 a 12.375,12.375 0 0 1 -12.375,12.375 12.375,12.375 0 0 1 -12.375,-12.375 12.375,12.375 0 0 1 12.375,-12.375 12.375,12.375 0 0 1 12.375,12.375 z" style="opacity: 1; fill: #8be1fc; fill-opacity: 1; stroke: none; stroke-width: 1; stroke-linecap: round; stroke-linejoin: round; stroke-miterlimit: 4; stroke-dasharray: none; stroke-dashoffset: 0; stroke-opacity: 1;"/>
      <path style="color: #000; font-style: normal; font-variant: normal; font-weight: normal; font-stretch: normal; font-size: medium; line-height: normal; font-family: sans-serif; text-indent: 0; text-align: start; text-decoration: none; text-decoration-line: none; text-decoration-style: solid; text-decoration-color: #000; letter-spacing: normal; word-spacing: normal; text-transform: none; direction: ltr; writing-mode: lr-tb; baseline-shift: baseline; text-anchor: start; white-space: normal; clip-rule: nonzero; display: inline; overflow: visible; visibility: visible; opacity: 1; isolation: auto; mix-blend-mode: normal; color-interpolation: sRGB; color-interpolation-filters: linearRGB; solid-color: #000; solid-opacity: 1; fill: #3a3640; fill-opacity: 1; fill-rule: nonzero; stroke: none; stroke-width: 1; stroke-linecap: round; stroke-linejoin: round; stroke-miterlimit: 4; stroke-dasharray: none; stroke-dashoffset: 0; stroke-opacity: 1; color-rendering: auto; image-rendering: auto; shape-rendering: auto; text-rendering: auto; enable-background: accumulate;" d="m -2393.3613,1538.2802 a 0.50004997,0.50004997 0 0 0 -0.3477,0.1543 l -3.1406,3.1425 -3.1406,-3.1425 a 0.50004997,0.50004997 0 0 0 -0.3594,-0.1504 0.50004997,0.50004997 0 0 0 -0.3496,0.8574 l 3.3496,3.3496 0,2.5859 -2.6406,-2.6425 a 0.50004997,0.50004997 0 0 0 -0.3594,-0.1504 0.50004997,0.50004997 0 0 0 -0.3496,0.8574 l 3.3496,3.3496 0,2.3438 c -0.4537,0.077 -0.8715,0.2522 -1.2324,0.5097 l -4.3164,-4.3164 0,-4.7383 a 0.50005,0.50005 0 0 0 -0.5078,-0.5058 0.50005,0.50005 0 0 0 -0.4922,0.5058 l 0,4.4454 -4.4434,0 a 0.50005,0.50005 0 1 0 0,1 l 4.7363,0 4.3164,4.3163 c -0.2571,0.3607 -0.4326,0.7792 -0.5097,1.2325 l -2.3438,0 -3.3476,-3.3496 a 0.50004997,0.50004997 0 0 0 -0.3594,-0.1504 0.50004997,0.50004997 0 0 0 -0.3477,0.8574 l 2.6407,2.6426 -2.586,0 -3.3476,-3.3496 a 0.50004997,0.50004997 0 0 0 -0.3594,-0.1504 0.50004997,0.50004997 0 0 0 -0.3477,0.8574 l 3.1407,3.1426 -3.1407,3.1406 a 0.50004997,0.50004997 0 1 0 0.7071,0.707 l 3.3476,-3.3476 2.586,0 -2.6407,2.6406 a 0.50004997,0.50004997 0 1 0 0.7071,0.707 l 3.3476,-3.3476 2.3438,0 c 0.077,0.4531 0.2525,0.872 0.5097,1.2324 l -4.3164,4.3164 -4.7363,0 a 0.50005,0.50005 0 0 0 -0.051,0 0.50064983,0.50064983 0 0 0 0.051,1 l 4.4434,0 0,4.4434 a 0.50005,0.50005 0 1 0 1,0 l 0,-4.7364 4.3183,-4.3183 c 0.3606,0.2571 0.7773,0.4327 1.2305,0.5097 l 0,2.3457 -3.3496,3.3477 a 0.50066741,0.50066741 0 1 0 0.709,0.707 l 2.6406,-2.6406 0,2.5859 -3.3496,3.3477 a 0.50066741,0.50066741 0 1 0 0.709,0.707 l 3.1406,-3.1406 3.1406,3.1406 a 0.50004997,0.50004997 0 1 0 0.7071,-0.707 l -3.3477,-3.3477 0,-2.5859 2.6406,2.6406 a 0.50004997,0.50004997 0 1 0 0.7071,-0.707 l -3.3477,-3.3477 0,-2.3457 c 0.4532,-0.077 0.8699,-0.2526 1.2305,-0.5097 l 4.3183,4.3183 0,4.7364 a 0.50005,0.50005 0 1 0 1,0 l 0,-4.4434 4.4434,0 a 0.50005,0.50005 0 1 0 0,-1 l -4.7363,0 -4.3164,-4.3164 c 0.2572,-0.3604 0.4324,-0.7793 0.5097,-1.2324 l 2.3438,0 3.3476,3.3476 a 0.50004997,0.50004997 0 1 0 0.7071,-0.707 l -2.6407,-2.6406 2.586,0 3.3476,3.3476 a 0.50004997,0.50004997 0 1 0 0.7071,-0.707 l -3.1407,-3.1406 3.1407,-3.1426 a 0.50004997,0.50004997 0 0 0 -0.3633,-0.8574 0.50004997,0.50004997 0 0 0 -0.3438,0.1504 l -3.3476,3.3496 -2.586,0 2.6407,-2.6426 a 0.50004997,0.50004997 0 0 0 -0.3633,-0.8574 0.50004997,0.50004997 0 0 0 -0.3438,0.1504 l -3.3476,3.3496 -2.3438,0 c -0.077,-0.4533 -0.2526,-0.8718 -0.5097,-1.2325 l 4.3164,-4.3163 4.7363,0 a 0.50005,0.50005 0 1 0 0,-1 l -4.4434,0 0,-4.4454 a 0.50005,0.50005 0 0 0 -0.5078,-0.5058 0.50005,0.50005 0 0 0 -0.4922,0.5058 l 0,4.7383 -4.3164,4.3164 c -0.3608,-0.2575 -0.7787,-0.4326 -1.2324,-0.5097 l 0,-2.3438 3.3477,-3.3496 a 0.50004997,0.50004997 0 1 0 -0.7071,-0.707 l -2.6406,2.6425 0,-2.5859 3.3477,-3.3496 a 0.50004997,0.50004997 0 0 0 -0.3594,-0.8613 z m -3.4883,11.5039 c 1.1105,0 2,0.8895 2,2 0,1.1105 -0.8895,2 -2,2 -1.1105,0 -2,-0.8895 -2,-2 0,-1.1105 0.8895,-2 2,-2 z" id="path22750" inkscape:connector-curvature="0"/>
    </g>
  </g>

	<metadata>
		<rdf:RDF xmlns:rdf="http://www.w3.org/1999/02/22-rdf-syntax-ns#" xmlns:rdfs="http://www.w3.org/2000/01/rdf-schema#" xmlns:dc="http://purl.org/dc/elements/1.1/">
			<rdf:Description about="https://iconscout.com/legal#licenses" dc:title="snow-snowflake-cold-winter-weather-forecast-christmas" dc:description="snow-snowflake-cold-winter-weather-forecast-christmas" dc:publisher="Iconscout" dc:date="2017-04-18" dc:format="image/svg+xml" dc:language="en">
				<dc:creator>
					<rdf:Bag>
						<rdf:li>Vignesh Oviyan</rdf:li>
					</rdf:Bag>
				</dc:creator>
			</rdf:Description>
		</rdf:RDF>
    </metadata></svg>
