<?xml version="1.0" encoding="UTF-8"?><svg xmlns="http://www.w3.org/2000/svg" xmlns:xlink="http://www.w3.org/1999/xlink" version="1.1" id="Layer_1" x="0px" y="0px" viewBox="0 0 24 24" xml:space="preserve"><path fill="#039BE5" d="M12.38 23.824l8.177-9.619c.286-.337.443-.765.443-1.206v-.137a1.864 1.864 0 0 0-3.292-1.192L14 16.12V2c0-1.103-.897-2-2-2s-2 .897-2 2v14.12l-3.708-4.45A1.864 1.864 0 0 0 3 12.862V13c0 .441.157.87.443 1.207l8.176 9.618a.5.5 0 0 0 .762 0z"/><linearGradient id="SVGID_1_" gradientUnits="userSpaceOnUse" x1="4.8092799" y1="8.5694466" x2="19.9629593" y2="15.6357241"><stop offset="0" stop-color="#FFF" stop-opacity="0.2"/><stop offset="1" stop-color="#FFF" stop-opacity="0"/></linearGradient><path fill="url(#SVGID_1_)" d="M12.38 23.824l8.177-9.619c.286-.337.443-.765.443-1.206v-.137a1.864 1.864 0 0 0-3.292-1.192L14 16.12V2c0-1.103-.897-2-2-2s-2 .897-2 2v14.12l-3.708-4.45A1.864 1.864 0 0 0 3 12.862V13c0 .441.157.87.443 1.207l8.176 9.618a.5.5 0 0 0 .762 0z"/><metadata><rdf:RDF xmlns:rdf="http://www.w3.org/1999/02/22-rdf-syntax-ns#" xmlns:rdfs="http://www.w3.org/2000/01/rdf-schema#" xmlns:dc="http://purl.org/dc/elements/1.1/"><rdf:Description about="https://iconscout.com/legal#licenses" dc:title="arrow,point,direction,move,navigation" dc:description="arrow,point,direction,move,navigation" dc:publisher="Iconscout" dc:date="2017-11-13" dc:format="image/svg+xml" dc:language="en"><dc:creator><rdf:Bag><rdf:li>Those Icons</rdf:li></rdf:Bag></dc:creator></rdf:Description></rdf:RDF></metadata></svg>