<?xml version="1.0" encoding="UTF-8"?><svg xmlns="http://www.w3.org/2000/svg" xmlns:xlink="http://www.w3.org/1999/xlink" version="1.1" id="Layer_1" x="0px" y="0px" viewBox="0 0 24 24" xml:space="preserve"><path fill="#039BE5" d="M11.62.176L3.442 9.795A1.866 1.866 0 0 0 3 11v.137a1.864 1.864 0 0 0 3.292 1.192L10 7.88V22c0 1.103.897 2 2 2s2-.897 2-2V7.88l3.708 4.45c.354.426.876.67 1.43.67A1.864 1.864 0 0 0 21 11.138V11c0-.441-.157-.87-.443-1.207L12.38.176a.5.5 0 0 0-.762 0z"/><linearGradient id="SVGID_1_" gradientUnits="userSpaceOnUse" x1="4.0370412" y1="8.3642759" x2="19.1907196" y2="15.4305534"><stop offset="0" stop-color="#FFF" stop-opacity="0.2"/><stop offset="1" stop-color="#FFF" stop-opacity="0"/></linearGradient><path fill="url(#SVGID_1_)" d="M11.62.176L3.442 9.795A1.866 1.866 0 0 0 3 11v.137a1.864 1.864 0 0 0 3.292 1.192L10 7.88V22c0 1.103.897 2 2 2s2-.897 2-2V7.88l3.708 4.45c.354.426.876.67 1.43.67A1.864 1.864 0 0 0 21 11.138V11c0-.441-.157-.87-.443-1.207L12.38.176a.5.5 0 0 0-.762 0z"/><metadata><rdf:RDF xmlns:rdf="http://www.w3.org/1999/02/22-rdf-syntax-ns#" xmlns:rdfs="http://www.w3.org/2000/01/rdf-schema#" xmlns:dc="http://purl.org/dc/elements/1.1/"><rdf:Description about="https://iconscout.com/legal#licenses" dc:title="arrow,point,direction,move,navigation" dc:description="arrow,point,direction,move,navigation" dc:publisher="Iconscout" dc:date="2017-11-13" dc:format="image/svg+xml" dc:language="en"><dc:creator><rdf:Bag><rdf:li>Those Icons</rdf:li></rdf:Bag></dc:creator></rdf:Description></rdf:RDF></metadata></svg>